<?xml version="1.0" standalone="no"?>
<!DOCTYPE svg PUBLIC "-//W3C//DTD SVG 20010904//EN"
 "http://www.w3.org/TR/2001/REC-SVG-20010904/DTD/svg10.dtd">
<svg version="1.0" xmlns="http://www.w3.org/2000/svg"
 width="500.000000pt" height="500.000000pt" viewBox="0 0 500.000000 500.000000"
 preserveAspectRatio="xMidYMid meet">

<g transform="translate(0.000000,500.000000) scale(0.100000,-0.100000)"
fill="#000000" stroke="none">
<path d="M3420 3894 c-152 -29 -337 -137 -520 -303 -42 -38 -90 -81 -108 -96
-37 -31 -41 -45 -13 -45 11 0 23 -5 26 -10 4 -6 42 24 88 69 218 214 420 330
576 331 89 0 135 -22 174 -83 31 -47 35 -120 8 -138 -15 -10 -15 -10 0 -6 13
4 15 -1 12 -31 -2 -20 -9 -39 -14 -43 -6 -3 -10 -9 -10 -13 3 -22 -1 -28 -18
-23 -17 4 -18 2 -8 -14 15 -25 4 -33 -25 -18 l-23 12 24 -27 c30 -32 22 -44
-13 -21 -14 10 -26 13 -26 7 0 -5 7 -12 15 -16 8 -3 15 -14 15 -25 0 -15 -5
-19 -16 -14 -13 5 -15 2 -9 -15 7 -25 -13 -30 -33 -10 -18 18 -15 -4 5 -31 16
-24 16 -24 -15 -19 -30 4 -31 3 -16 -13 22 -25 -2 -36 -29 -12 -22 18 -22 18
-4 -3 9 -11 17 -28 17 -38 0 -15 -2 -15 -26 1 -27 17 -27 17 -15 -4 6 -12 11
-30 11 -39 0 -15 -4 -14 -27 7 -14 13 -22 17 -17 9 5 -8 10 -25 12 -37 2 -17
-1 -21 -13 -17 -9 4 -15 0 -15 -9 0 -10 -7 -15 -20 -12 -17 3 -18 1 -8 -15 17
-26 2 -37 -20 -17 -27 25 -35 21 -16 -8 15 -23 15 -25 -1 -31 -10 -4 -21 -1
-25 7 -5 7 -11 11 -14 8 -7 -6 62 -119 73 -119 14 0 261 297 261 314 0 2 17
33 38 67 64 105 85 172 86 269 1 131 -43 204 -152 252 -44 20 -127 30 -172 22z"/>
<path d="M3194 3675 c-4 -17 2 -45 20 -84 32 -72 43 -127 52 -262 8 -123 17
-150 32 -93 6 21 17 62 24 89 16 62 15 178 -2 230 -7 21 -28 63 -47 92 -38 59
-68 70 -79 28z"/>
<path d="M3520 3641 c0 -6 5 -13 10 -16 6 -3 10 1 10 9 0 9 -4 16 -10 16 -5 0
-10 -4 -10 -9z"/>
<path d="M3093 3618 c-23 -29 -33 -87 -33 -188 l0 -106 69 -72 c38 -40 71 -72
74 -72 5 0 -2 33 -29 123 -15 52 -42 215 -46 281 -3 41 -18 56 -35 34z"/>
<path d="M2387 3524 c-4 -4 -7 -18 -7 -31 0 -20 5 -23 36 -23 29 0 34 -3 30
-17 -3 -10 -10 -65 -16 -123 -16 -155 -48 -456 -56 -527 -4 -33 -10 -67 -14
-73 -6 -9 -58 21 -178 103 -94 64 -173 113 -175 109 -3 -4 27 -48 67 -99 119
-153 178 -235 173 -239 -3 -3 -74 -14 -158 -25 -85 -11 -218 -28 -297 -39 -79
-10 -147 -21 -150 -25 -18 -18 40 -34 161 -45 162 -14 429 -48 435 -55 3 -3
-4 -15 -15 -28 -37 -42 -213 -294 -213 -306 0 -18 8 -14 92 47 143 103 233
162 245 162 16 0 17 -4 68 -395 8 -66 20 -151 25 -189 6 -38 9 -71 7 -73 -3
-2 -59 5 -126 17 -204 34 -352 111 -487 251 -172 180 -244 358 -243 599 0 165
24 263 101 411 43 84 150 208 240 276 106 82 287 156 408 167 44 3 45 5 48 40
4 42 1 42 -94 25 -64 -11 -149 -39 -231 -75 -154 -67 -329 -224 -416 -372 -99
-168 -133 -314 -125 -530 4 -108 10 -141 36 -219 71 -211 201 -381 382 -502
168 -112 344 -158 574 -148 73 3 157 12 190 21 285 79 505 272 629 551 82 186
93 428 30 629 -83 267 -298 493 -565 596 -61 24 -218 60 -259 60 -5 0 -9 -15
-9 -34 0 -34 1 -35 48 -41 219 -27 448 -157 571 -324 194 -262 236 -558 121
-862 -59 -159 -221 -339 -382 -427 -115 -62 -308 -114 -391 -104 -24 3 -28 7
-23 26 3 12 10 64 16 116 19 167 70 494 79 503 4 4 35 -10 67 -31 32 -22 108
-72 168 -111 59 -40 110 -70 112 -68 3 2 -26 44 -63 93 -128 169 -174 237
-166 244 8 8 318 45 458 56 115 8 169 28 136 49 -14 8 -284 51 -453 71 -82 10
-148 22 -148 27 0 8 94 134 198 263 24 30 42 59 40 65 -2 6 -54 -23 -115 -65
-62 -42 -114 -76 -117 -76 -3 0 -31 -18 -63 -39 -31 -22 -60 -38 -63 -36 -4 2
-10 42 -14 87 -3 46 -13 137 -21 203 -8 66 -22 185 -30 265 -9 80 -19 155 -22
168 -5 20 -1 22 32 22 34 0 36 2 33 28 -3 26 -5 27 -73 30 -39 1 -74 0 -78 -4z
m134 -845 c51 -18 97 -66 115 -124 15 -48 15 -53 -6 -108 -38 -101 -141 -145
-242 -102 -113 47 -144 199 -59 284 53 53 126 72 192 50z"/>
<path d="M2415 2606 c-65 -28 -83 -126 -32 -174 38 -36 72 -44 117 -26 48 19
73 55 73 105 0 87 -75 131 -158 95z m83 -68 c29 -29 -7 -86 -46 -74 -36 12
-47 33 -32 61 15 27 57 34 78 13z"/>
<path d="M3510 3480 c0 -5 5 -10 11 -10 5 0 7 5 4 10 -3 6 -8 10 -11 10 -2 0
-4 -4 -4 -10z"/>
<path d="M2304 3236 c-10 -27 1 -51 24 -54 21 -3 23 0 20 30 -3 35 -33 52 -44
24z"/>
<path d="M2577 3244 c-13 -13 -7 -55 8 -60 21 -9 47 15 43 40 -3 21 -37 34
-51 20z"/>
<path d="M2194 3222 c-21 -14 -23 -41 -5 -63 22 -28 51 -19 51 14 0 27 -30 59
-46 49z"/>
<path d="M2697 3214 c-14 -14 -7 -65 9 -71 21 -8 46 24 42 52 -3 20 -37 33
-51 19z"/>
<path d="M2071 3156 c-9 -11 -9 -19 1 -35 17 -28 39 -35 56 -17 13 13 13 18
-2 40 -18 29 -38 33 -55 12z"/>
<path d="M2800 3139 c-11 -25 -11 -32 0 -39 7 -4 19 -6 25 -4 18 7 39 50 31
63 -14 22 -44 11 -56 -20z"/>
<path d="M1970 3105 c-11 -13 -9 -20 10 -40 42 -45 88 -19 55 31 -18 27 -47
31 -65 9z"/>
<path d="M2897 3102 c-21 -23 -21 -36 -2 -52 13 -10 19 -9 36 6 23 20 22 57
-2 62 -8 1 -23 -6 -32 -16z"/>
<path d="M2984 3043 c-28 -30 -31 -51 -8 -60 18 -7 64 34 64 58 0 29 -29 31
-56 2z"/>
<path d="M1897 3053 c-13 -12 -7 -40 11 -56 42 -38 75 -6 41 37 -20 26 -39 33
-52 19z"/>
<path d="M1820 2935 c-10 -13 -10 -19 5 -35 23 -25 41 -25 54 -1 8 14 6 22 -8
35 -22 20 -35 20 -51 1z"/>
<path d="M3052 2938 c-7 -7 -12 -20 -12 -30 0 -22 42 -25 60 -3 26 32 -18 63
-48 33z"/>
<path d="M1753 2824 c-13 -35 39 -72 58 -42 12 18 11 24 -7 42 -20 21 -43 20
-51 0z"/>
<path d="M3126 2827 c-26 -19 -17 -52 14 -52 21 0 25 5 25 29 0 34 -13 42 -39
23z"/>
<path d="M1710 2676 c0 -18 7 -25 26 -29 16 -3 28 0 31 9 9 24 -5 44 -32 44
-20 0 -25 -5 -25 -24z"/>
<path d="M3156 2684 c-6 -16 9 -44 23 -44 19 0 42 27 35 43 -8 22 -50 22 -58
1z"/>
<path d="M1357 2514 c-4 -4 -7 -13 -7 -21 0 -9 16 -13 56 -13 47 0 55 3 52 18
-2 13 -15 18 -48 20 -25 2 -49 0 -53 -4z"/>
<path d="M3470 2501 c0 -19 5 -21 53 -21 51 0 88 13 75 25 -4 4 -34 9 -67 12
-57 5 -61 4 -61 -16z"/>
<path d="M3160 2355 c-18 -21 -5 -45 25 -45 20 0 25 5 25 24 0 13 -7 27 -16
30 -21 8 -20 8 -34 -9z"/>
<path d="M1711 2346 c-13 -16 -5 -46 13 -46 23 0 49 27 43 44 -8 20 -40 21
-56 2z"/>
<path d="M1424 2208 c-157 -166 -306 -414 -340 -565 -40 -182 26 -331 168
-377 169 -54 345 25 666 302 l63 55 -62 35 c-49 28 -63 32 -70 21 -5 -8 -9
-19 -9 -26 0 -7 -7 -10 -15 -7 -14 6 -21 -12 -16 -39 1 -5 -8 -6 -19 -2 -11 4
-20 3 -19 -2 4 -21 -2 -33 -18 -33 -9 0 -13 -3 -10 -7 4 -3 -2 -13 -13 -20
-11 -8 -17 -19 -14 -25 4 -6 -1 -6 -14 1 -28 15 -31 14 -25 -8 4 -16 1 -19
-16 -14 -16 4 -21 1 -21 -16 0 -14 -5 -19 -15 -15 -10 4 -15 0 -15 -15 0 -18
-3 -20 -19 -11 -28 14 -29 13 -24 -17 l5 -28 -21 25 -21 25 0 -32 c0 -38 -15
-44 -26 -10 -7 20 -8 20 -16 -11 -7 -28 -11 -32 -23 -22 -12 10 -15 9 -15 -4
0 -19 -5 -20 -30 -6 -16 9 -18 8 -13 -6 5 -14 1 -16 -25 -12 -18 2 -32 1 -32
-4 0 -4 -7 -8 -15 -8 -8 0 -15 6 -15 13 0 9 -2 9 -8 0 -11 -18 -72 -5 -110 23
-56 43 -67 76 -66 194 l0 105 51 107 c70 147 205 339 279 397 18 14 25 28 22
47 -5 41 -19 39 -64 -8z"/>
<path d="M1756 2218 c-14 -19 -14 -24 -2 -36 27 -27 74 7 60 43 -9 22 -41 18
-58 -7z"/>
<path d="M3103 2223 c-8 -19 31 -55 52 -47 20 8 27 34 14 50 -16 19 -58 17
-66 -3z"/>
<path d="M1829 2111 c-19 -16 -22 -23 -13 -37 16 -26 30 -28 54 -4 16 16 18
24 10 40 -13 25 -22 25 -51 1z"/>
<path d="M3039 2109 c-9 -18 -7 -25 9 -42 36 -36 81 5 47 43 -23 26 -41 25
-56 -1z"/>
<path d="M1452 2078 c-11 -13 -32 -46 -46 -74 -37 -73 -37 -199 -1 -298 33
-91 66 -150 88 -154 21 -4 22 15 2 123 -29 158 -36 229 -30 289 7 72 23 118
39 113 6 -2 24 -41 41 -88 29 -81 30 -89 28 -246 -1 -90 2 -163 6 -163 26 0
55 126 56 240 0 93 -1 97 -43 176 -54 103 -96 128 -140 82z"/>
<path d="M1917 2002 c-29 -30 -36 -62 -14 -62 18 0 57 43 57 63 0 28 -16 27
-43 -1z"/>
<path d="M2955 2020 c-8 -13 21 -57 48 -74 13 -8 20 -7 27 4 6 10 2 24 -14 45
-26 33 -50 43 -61 25z"/>
<path d="M1986 1954 c-37 -36 -4 -83 34 -49 24 22 26 51 4 59 -21 8 -20 8 -38
-10z"/>
<path d="M2883 1944 c-8 -21 30 -59 51 -51 19 7 21 38 4 55 -17 17 -48 15 -55
-4z"/>
<path d="M2085 1894 c-19 -20 -19 -53 0 -60 21 -8 45 14 45 41 0 29 -25 39
-45 19z"/>
<path d="M2797 1903 c-21 -21 18 -78 46 -68 20 8 22 33 3 58 -13 17 -37 22
-49 10z"/>
<path d="M2694 1846 c-3 -8 -4 -25 -2 -38 2 -17 9 -23 28 -23 31 0 39 34 15
59 -20 20 -34 20 -41 2z"/>
<path d="M2181 1828 c-6 -17 -4 -28 7 -41 16 -18 17 -18 35 4 23 28 18 53 -11
57 -16 2 -25 -3 -31 -20z"/>
<path d="M2581 1820 c-21 -12 -9 -65 15 -68 24 -3 38 20 29 48 -7 22 -27 31
-44 20z"/>
<path d="M2304 1806 c-10 -26 1 -51 21 -51 15 0 21 8 23 33 3 27 0 32 -18 32
-11 0 -23 -6 -26 -14z"/>
<path d="M1240 1740 c0 -5 9 -10 21 -10 11 0 17 5 14 10 -3 6 -13 10 -21 10
-8 0 -14 -4 -14 -10z"/>
<path d="M1820 1700 c-9 -6 -10 -10 -3 -10 6 0 15 5 18 10 8 12 4 12 -15 0z"/>
<path d="M1749 1613 c-13 -17 -13 -17 6 -3 11 8 22 16 24 17 2 2 0 3 -6 3 -6
0 -17 -8 -24 -17z"/>
<path d="M2447 1523 c-10 -10 -8 -56 3 -73 9 -13 11 -13 20 0 15 23 12 80 -3
80 -8 0 -17 -3 -20 -7z"/>
</g>
</svg>
